<svg width="22" height="22" viewBox="0 0 22 22" fill="none" xmlns="http://www.w3.org/2000/svg">
<g id="noun-plus-5732585 2" clip-path="url(#clip0_9_344)">
<g id="Group">
<path id="Vector" d="M11.6161 11.6428H21.3582C21.7059 11.6428 21.9878 11.361 21.9878 11.0132C21.9878 10.6655 21.7059 10.3836 21.3582 10.3836H11.6161V0.638873C11.6161 0.29115 11.3342 0.00927734 10.9865 0.00927734C10.6388 0.00927734 10.3569 0.291134 10.3569 0.638873V10.381H0.61214C0.264417 10.381 -0.0174561 10.6628 -0.0174561 11.0106C-0.0174561 11.1843 0.0544749 11.3432 0.168431 11.4572C0.282386 11.5711 0.4413 11.6431 0.615057 11.6431H10.3571V21.3852C10.3571 21.5589 10.4291 21.7178 10.543 21.8318C10.657 21.9458 10.8159 22.0177 10.9897 22.0177C11.3374 22.0177 11.6193 21.7358 11.6193 21.3881V11.646L11.6161 11.6428Z" fill="#191919"/>
</g>
</g>
<defs>
<clipPath id="clip0_9_344">
<rect width="22" height="22" fill="white"/>
</clipPath>
</defs>
</svg>
